{
    "asset" : {
        "generator" : "Khronos glTF Blender I/O v3.4.49",
        "version" : "2.0"
    },
    "extensionsUsed" : [
        "KHR_lights_punctual"
    ],
    "extensionsRequired" : [
        "KHR_lights_punctual"
    ],
    "extensions" : {
        "KHR_lights_punctual" : {
            "lights" : [
                {
                    "color" : [
                        1,
                        1,
                        1
                    ],
                    "intensity" : 54351.41306588226,
                    "type" : "point",
                    "name" : "Light"
                }
            ]
        }
    },
    "scene" : 0,
    "scenes" : [
        {
            "name" : "Scene",
            "nodes" : [
                0,
                1,
                2
            ]
        }
    ],
    "nodes" : [
        {
            "extensions" : {
                "KHR_lights_punctual" : {
                    "light" : 0
                }
            },
            "name" : "Light",
            "rotation" : [
                -0.28416627645492554,
                0.7269423007965088,
                0.34203392267227173,
                0.5232754945755005
            ],
            "translation" : [
                4.076245307922363,
                5.903861999511719,
                -1.0054539442062378
            ]
        },
        {
            "camera" : 0,
            "name" : "Camera",
            "rotation" : [
                -0.20997299253940582,
                0.3857799470424652,
                0.09062844514846802,
                0.8937962055206299
            ],
            "translation" : [
                7.358891487121582,
                4.958309173583984,
                6.925790786743164
            ]
        },
        {
            "extras" : {
                "currentUVSet" : "DiffuseUV"
            },
            "mesh" : 0,
            "name" : "Cliff_Rock_2_Model",
            "rotation" : [
                0.70710688829422,
                0,
                0,
                0.7071066498756409
            ],
            "scale" : [
                0.009999999776482582,
                0.009999999776482582,
                0.009999999776482582
            ]
        }
    ],
    "cameras" : [
        {
            "name" : "Camera",
            "perspective" : {
                "aspectRatio" : 1.7777777777777777,
                "yfov" : 0.39959652046304894,
                "zfar" : 100,
                "znear" : 0.10000000149011612
            },
            "type" : "perspective"
        }
    ],
    "materials" : [
        {
            "doubleSided" : true,
            "name" : "Rock_01_ZBrush1",
            "pbrMetallicRoughness" : {
		"baseColorTexture": {
        	"index": 0
      		},
                "baseColorFactor" : [
                    0.21902304542064667,
                    0.21418734645843506,
                    0.21146056109666824,
                    1
                ],
                "metallicFactor" : 1,
                "roughnessFactor" : 0.858578622341156
            }
        }
    ],
    "images": [
	{
    		"uri": "cliff.jpg"
    	}
    ],
    "textures": [
  	{
    		"source": 0
  	}
    ],
    "meshes" : [
        {
            "name" : "Mesh",
            "primitives" : [
                {
                    "attributes" : {
                        "COLOR_0" : 0,
                        "POSITION" : 1,
                        "TEXCOORD_0" : 2,
                        "NORMAL" : 3
                    },
                    "indices" : 4,
                    "material" : 0
                }
            ]
        }
    ],
    "accessors" : [
        {
            "bufferView" : 0,
            "componentType" : 5123,
            "count" : 2689,
            "normalized" : true,
            "type" : "VEC4"
        },
        {
            "bufferView" : 1,
            "componentType" : 5126,
            "count" : 2689,
            "max" : [
                38.951412200927734,
                79.19676971435547,
                -0.3498498201370239
            ],
            "min" : [
                -38.42240905761719,
                7.714568614959717,
                -104.2804946899414
            ],
            "type" : "VEC3"
        },
        {
            "bufferView" : 2,
            "componentType" : 5126,
            "count" : 2689,
            "type" : "VEC2"
        },
        {
            "bufferView" : 3,
            "componentType" : 5126,
            "count" : 2689,
            "type" : "VEC3"
        },
        {
            "bufferView" : 4,
            "componentType" : 5123,
            "count" : 15780,
            "type" : "SCALAR"
        }
    ],
    "bufferViews" : [
        {
            "buffer" : 0,
            "byteLength" : 21512,
            "byteOffset" : 0,
            "target" : 34962
        },
        {
            "buffer" : 0,
            "byteLength" : 32268,
            "byteOffset" : 21512,
            "target" : 34962
        },
        {
            "buffer" : 0,
            "byteLength" : 21512,
            "byteOffset" : 53780,
            "target" : 34962
        },
        {
            "buffer" : 0,
            "byteLength" : 32268,
            "byteOffset" : 75292,
            "target" : 34962
        },
        {
            "buffer" : 0,
            "byteLength" : 31560,
            "byteOffset" : 107560,
            "target" : 34963
        }
    ],
    "buffers" : [
        {
            "byteLength" : 139120,
            "uri" : "untitled.bin"
        }
    ]
}
